<svg width="100%" height="100%" viewBox="0 0 177 177" fill="currentColor" xmlns="http://www.w3.org/2000/svg">
<ellipse cx="56.7057" cy="80.59" rx="1.46296" ry="1.46296" transform="rotate(19.1241 56.7057 80.59)" fill="currentColor"/>
<circle cx="59.5754" cy="81.1951" r="0.982958" transform="rotate(19.1241 59.5754 81.1951)" fill="currentColor"/>
<ellipse cx="63.6057" cy="79.2738" rx="0.384001" ry="0.384001" transform="rotate(19.1241 63.6057 79.2738)" fill="currentColor"/>
<ellipse cx="62.217" cy="80.761" rx="0.939132" ry="1.35235" transform="rotate(-19.6716 62.217 80.761)" fill="currentColor"/>
<path d="M21.0268 98.349C19.3472 98.349 17.8033 97.9588 16.3951 97.1784C15.0039 96.398 13.8927 95.3122 13.0613 93.921C12.247 92.5128 11.8398 90.935 11.8398 89.1875C11.8398 87.44 12.247 85.8707 13.0613 84.4795C13.8927 83.0883 15.0039 82.0025 16.3951 81.2221C17.8033 80.4417 19.3472 80.0515 21.0268 80.0515C22.7064 80.0515 24.2418 80.4417 25.633 81.2221C27.0411 82.0025 28.1439 83.0883 28.9413 84.4795C29.7557 85.8707 30.1628 87.44 30.1628 89.1875C30.1628 90.935 29.7557 92.5128 28.9413 93.921C28.1269 95.3122 27.0242 96.398 25.633 97.1784C24.2418 97.9588 22.7064 98.349 21.0268 98.349ZM21.0268 94.379C22.4519 94.379 23.5886 93.904 24.4369 92.9539C25.3021 92.0038 25.7348 90.7484 25.7348 89.1875C25.7348 87.6097 25.3021 86.3542 24.4369 85.4211C23.5886 84.471 22.4519 83.996 21.0268 83.996C19.5847 83.996 18.431 84.4626 17.5658 85.3957C16.7175 86.3288 16.2933 87.5927 16.2933 89.1875C16.2933 90.7653 16.7175 92.0293 17.5658 92.9794C18.431 93.9125 19.5847 94.379 21.0268 94.379ZM38.4625 85.981C38.8866 85.3193 39.4719 84.7849 40.2184 84.3777C40.9649 83.9705 41.8387 83.767 42.8396 83.767C44.0103 83.767 45.0706 84.0639 46.0207 84.6577C46.9708 85.2515 47.7173 86.0998 48.2602 87.2025C48.8201 88.3053 49.1 89.5862 49.1 91.0453C49.1 92.5043 48.8201 93.7937 48.2602 94.9135C47.7173 96.0162 46.9708 96.873 46.0207 97.4838C45.0706 98.0776 44.0103 98.3745 42.8396 98.3745C41.8556 98.3745 40.9819 98.1709 40.2184 97.7637C39.4719 97.3565 38.8866 96.8306 38.4625 96.1859V104.94H34.1108V83.9705H38.4625V85.981ZM44.6719 91.0453C44.6719 89.9595 44.3666 89.1112 43.7558 88.5004C43.162 87.8727 42.424 87.5588 41.5418 87.5588C40.6765 87.5588 39.9385 87.8727 39.3277 88.5004C38.7339 89.1281 38.437 89.9849 38.437 91.0707C38.437 92.1565 38.7339 93.0133 39.3277 93.641C39.9385 94.2688 40.6765 94.5826 41.5418 94.5826C42.407 94.5826 43.145 94.2688 43.7558 93.641C44.3666 92.9963 44.6719 92.1311 44.6719 91.0453ZM66.2959 90.8417C66.2959 91.2489 66.2705 91.673 66.2196 92.1141H56.371C56.4388 92.9963 56.7188 93.675 57.2108 94.15C57.7198 94.6081 58.339 94.8371 59.0685 94.8371C60.1543 94.8371 60.9093 94.379 61.3335 93.4629H65.9651C65.7276 94.396 65.295 95.2358 64.6672 95.9823C64.0565 96.7288 63.2845 97.3141 62.3514 97.7383C61.4183 98.1624 60.3749 98.3745 59.2212 98.3745C57.83 98.3745 56.5915 98.0776 55.5057 97.4838C54.4199 96.89 53.5716 96.0417 52.9609 94.9389C52.3501 93.8361 52.0447 92.5467 52.0447 91.0707C52.0447 89.5947 52.3416 88.3053 52.9354 87.2025C53.5462 86.0998 54.3945 85.2515 55.4803 84.6577C56.5661 84.0639 57.8131 83.767 59.2212 83.767C60.5954 83.767 61.817 84.0554 62.8858 84.6322C63.9547 85.2091 64.786 86.0319 65.3798 87.1007C65.9906 88.1696 66.2959 89.4166 66.2959 90.8417ZM61.8424 89.6965C61.8424 88.95 61.5879 88.3562 61.079 87.9151C60.57 87.474 59.9338 87.2534 59.1703 87.2534C58.4408 87.2534 57.8215 87.4655 57.3126 87.8896C56.8206 88.3138 56.5152 88.9161 56.3964 89.6965H61.8424ZM78.7712 83.8179C80.4338 83.8179 81.7571 84.3608 82.7411 85.4466C83.7421 86.5154 84.2426 87.9914 84.2426 89.8746V98.1709H79.9163V90.46C79.9163 89.5099 79.6703 88.7719 79.1783 88.2459C78.6863 87.72 78.0247 87.457 77.1933 87.457C76.362 87.457 75.7004 87.72 75.2083 88.2459C74.7163 88.7719 74.4703 89.5099 74.4703 90.46V98.1709H70.1186V83.9705H74.4703V85.8537C74.9114 85.226 75.5052 84.734 76.2517 84.3777C76.9982 84.0045 77.838 83.8179 78.7712 83.8179ZM105.564 80.3059L99.2275 98.1709H93.7815L87.4448 80.3059H92.0764L96.5045 93.7937L100.958 80.3059H105.564ZM115.374 98.3745C113.983 98.3745 112.727 98.0776 111.607 97.4838C110.505 96.89 109.631 96.0417 108.986 94.9389C108.359 93.8361 108.045 92.5467 108.045 91.0707C108.045 89.6117 108.367 88.3308 109.012 87.228C109.656 86.1082 110.539 85.2515 111.658 84.6577C112.778 84.0639 114.034 83.767 115.425 83.767C116.816 83.767 118.071 84.0639 119.191 84.6577C120.311 85.2515 121.193 86.1082 121.838 87.228C122.483 88.3308 122.805 89.6117 122.805 91.0707C122.805 92.5298 122.474 93.8192 121.812 94.9389C121.168 96.0417 120.277 96.89 119.14 97.4838C118.021 98.0776 116.765 98.3745 115.374 98.3745ZM115.374 94.6081C116.205 94.6081 116.909 94.3027 117.486 93.6919C118.08 93.0812 118.377 92.2074 118.377 91.0707C118.377 89.934 118.088 89.0603 117.512 88.4495C116.952 87.8387 116.256 87.5334 115.425 87.5334C114.576 87.5334 113.872 87.8387 113.313 88.4495C112.753 89.0433 112.473 89.9171 112.473 91.0707C112.473 92.2074 112.744 93.0812 113.287 93.6919C113.847 94.3027 114.543 94.6081 115.374 94.6081ZM128.829 82.4945C128.066 82.4945 127.438 82.274 126.946 81.8329C126.471 81.3748 126.233 80.8149 126.233 80.1533C126.233 79.4746 126.471 78.9147 126.946 78.4736C127.438 78.0156 128.066 77.7865 128.829 77.7865C129.576 77.7865 130.186 78.0156 130.661 78.4736C131.153 78.9147 131.399 79.4746 131.399 80.1533C131.399 80.8149 131.153 81.3748 130.661 81.8329C130.186 82.274 129.576 82.4945 128.829 82.4945ZM130.992 83.9705V98.1709H126.64V83.9705H130.992ZM134.808 91.0707C134.808 89.5947 135.104 88.3053 135.698 87.2025C136.309 86.0998 137.149 85.2515 138.218 84.6577C139.303 84.0639 140.542 83.767 141.933 83.767C143.715 83.767 145.199 84.2335 146.387 85.1666C147.591 86.0998 148.38 87.4146 148.753 89.1112H144.122C143.731 88.0254 142.977 87.4825 141.857 87.4825C141.059 87.4825 140.423 87.7963 139.948 88.4241C139.473 89.0348 139.236 89.9171 139.236 91.0707C139.236 92.2244 139.473 93.1151 139.948 93.7428C140.423 94.3536 141.059 94.659 141.857 94.659C142.977 94.659 143.731 94.1161 144.122 93.0303H148.753C148.38 94.6929 147.591 95.9993 146.387 96.9494C145.182 97.8994 143.698 98.3745 141.933 98.3745C140.542 98.3745 139.303 98.0776 138.218 97.4838C137.149 96.89 136.309 96.0417 135.698 94.9389C135.104 93.8361 134.808 92.5467 134.808 91.0707ZM165.994 90.8417C165.994 91.2489 165.969 91.673 165.918 92.1141H156.069C156.137 92.9963 156.417 93.675 156.909 94.15C157.418 94.6081 158.037 94.8371 158.767 94.8371C159.852 94.8371 160.607 94.379 161.032 93.4629H165.663C165.426 94.396 164.993 95.2358 164.365 95.9823C163.755 96.7288 162.983 97.3141 162.049 97.7383C161.116 98.1624 160.073 98.3745 158.919 98.3745C157.528 98.3745 156.29 98.0776 155.204 97.4838C154.118 96.89 153.27 96.0417 152.659 94.9389C152.048 93.8361 151.743 92.5467 151.743 91.0707C151.743 89.5947 152.04 88.3053 152.633 87.2025C153.244 86.0998 154.093 85.2515 155.178 84.6577C156.264 84.0639 157.511 83.767 158.919 83.767C160.294 83.767 161.515 84.0554 162.584 84.6322C163.653 85.2091 164.484 86.0319 165.078 87.1007C165.689 88.1696 165.994 89.4166 165.994 90.8417ZM161.541 89.6965C161.541 88.95 161.286 88.3562 160.777 87.9151C160.268 87.474 159.632 87.2534 158.868 87.2534C158.139 87.2534 157.52 87.4655 157.011 87.8896C156.519 88.3138 156.213 88.9161 156.095 89.6965H161.541Z" fill="currentColor"/>
</svg>
