<svg width="100%" height="100%" viewBox="0 0 1751 1751" fill="currentColor" xmlns="http://www.w3.org/2000/svg">
<g clip-path="url(#clip0_766_74)">
<ellipse cx="690.822" cy="342.4" rx="92.4352" ry="92.4351" transform="rotate(19.1241 690.822 342.4)" fill="currentColor"/>
<circle cx="872.144" cy="380.627" r="62.1069" transform="rotate(19.1241 872.144 380.627)" fill="currentColor"/>
<ellipse cx="1126.79" cy="259.229" rx="24.2626" ry="24.2626" transform="rotate(19.1241 1126.79 259.229)" fill="currentColor"/>
<ellipse cx="1039.05" cy="353.198" rx="59.3378" ry="85.4464" transform="rotate(-19.6716 1039.05 353.198)" fill="currentColor"/>
<path d="M872.633 1409.91C788.603 1409.91 711.364 1390.39 640.914 1351.35C571.314 1312.3 515.718 1257.98 474.128 1188.38C433.386 1117.93 413.015 1038.99 413.015 951.567C413.015 864.142 433.386 785.629 474.128 716.028C515.718 646.428 571.314 592.106 640.914 553.061C711.364 514.017 788.603 494.495 872.633 494.495C956.663 494.495 1033.48 514.017 1103.08 553.061C1173.53 592.106 1228.7 646.428 1268.59 716.028C1309.33 785.629 1329.71 864.142 1329.71 951.567C1329.71 1038.99 1309.33 1117.93 1268.59 1188.38C1227.85 1257.98 1172.68 1312.3 1103.08 1351.35C1033.48 1390.39 956.663 1409.91 872.633 1409.91ZM872.633 1211.3C943.932 1211.3 1000.8 1187.53 1043.24 1140C1086.53 1092.47 1108.17 1029.66 1108.17 951.567C1108.17 872.63 1086.53 809.82 1043.24 763.136C1000.8 715.604 943.932 691.838 872.633 691.838C800.486 691.838 742.769 715.18 699.481 761.863C657.041 808.546 635.822 871.781 635.822 951.567C635.822 1030.5 657.041 1093.74 699.481 1141.27C742.769 1187.95 800.486 1211.3 872.633 1211.3Z" fill="currentColor"/>
</g>
<defs>
<clipPath id="clip0_766_74">
<rect width="100%" height="100%" fill="currentColor"/>
</clipPath>
</defs>
</svg>
